PathFileType	4	(x/y/z)	S10_P20_T02
DataRate	CameraRate	NumFrames	NumMarkers	Units	OrigDataRate	OrigDataStartFrame	OrigNumFrames
240	240	7	51	mm	240	212	422
Frame#	Time	Sternum			R.Acromium			L.Acromium			Top.Head			R.ASIS			L.ASIS			R.PSIS			L.PSIS			R.Great.Tro			L.Great.Tro			R.Iliac.Crest			L.Iliac.Crest			V.Sacral			R.Thigh.Upper.Post			R.Thigh.Lower.Ant			R.Thigh.Lower.Post			R.Thigh.Upper.Ant			R.Knee.Lat			R.Knee.Med			R.Shank.Upper.Post			R.Shank.Lower.Ant			R.Shank.Lower.Post			R.Shank.Upper.Ant			R.Ankle.Lat			R.Ankle.Med			R.Heel.Upper			R.Heel.Med			R.Heel.Lat			R.Toe.Lat			R.Toe.Med			R.Toe.Tip			L.Thigh.Upper.Post			L.Thigh.Lower.Ant			L.Thigh.Lower.Post			L.Thigh.Upper.Ant			L.Knee.Lat			L.Knee.Med			L.Shank.Upper.Post			L.Shank.Lower.Ant			L.Shank.Lower.Post			L.Shank.Upper.Ant			L.Ankle.Lat			L.Ankle.Med			L.Heel.Upper			L.Heel.Med			L.Heel.Lat			L.Toe.Lat			L.Toe.Med			L.Toe.Tip			Cervical.Spine			Back			
		X1	Y1	Z1	X2	Y2	Z2	X3	Y3	Z3	X4	Y4	Z4	X5	Y5	Z5	X6	Y6	Z6	X7	Y7	Z7	X8	Y8	Z8	X9	Y9	Z9	X10	Y10	Z10	X11	Y11	Z11	X12	Y12	Z12	X13	Y13	Z13	X14	Y14	Z14	X15	Y15	Z15	X16	Y16	Z16	X17	Y17	Z17	X18	Y18	Z18	X19	Y19	Z19	X20	Y20	Z20	X21	Y21	Z21	X22	Y22	Z22	X23	Y23	Z23	X24	Y24	Z24	X25	Y25	Z25	X26	Y26	Z26	X27	Y27	Z27	X28	Y28	Z28	X29	Y29	Z29	X30	Y30	Z30	X31	Y31	Z31	X32	Y32	Z32	X33	Y33	Z33	X34	Y34	Z34	X35	Y35	Z35	X36	Y36	Z36	X37	Y37	Z37	X38	Y38	Z38	X39	Y39	Z39	X40	Y40	Z40	X41	Y41	Z41	X42	Y42	Z42	X43	Y43	Z43	X44	Y44	Z44	X45	Y45	Z45	X46	Y46	Z46	X47	Y47	Z47	X48	Y48	Z48	X49	Y49	Z49	X50	Y50	Z50	X51	Y51	Z51	

212	0.87917	-141.94	1296.1	371.49	-253.44	1451.9	534.65	-281.22	1475	234.06	-297.83	1766.5	412.87	-182.84	1026.2	488.95	-198.58	1043.4	259.46	-389.13	1039.4	411.29	-390.23	1046.1	330.41	-254.55	947.4	564.12	-253.26	974.07	202.58	-281.07	1103.5	537.87	-270.24	1112.8	235.79	-409.18	1007.4	376.16	-267.47	736.15	548.57	-223.02	653.8	507.59	-286.48	649.56	534.67	-201.7	741.6	517.72	-314.71	526.7	493.96	-324.08	536.78	366.58	-431.7	319.81	491.98	-381.92	245.48	473.15	-446.45	247.67	483.64	-360.46	319.42	481.08	-452	139.48	460.16	-446.23	151.49	382.7	-527.1	103.02	415.82	-523.73	73.134	389.06	-525.66	78.983	450.6	-358.01	40.98	491.95	-330.64	41.624	381.48	-269.88	46.416	423.11	-194.39	697.41	208.06	-98.955	645.86	228.25	-162.13	609.43	230.66	-123.45	730.89	205.83	-112.2	541.42	238.41	-82.618	542.99	366.39	-207.99	344.91	245.49	-154.87	248.04	250.67	-215.74	268.08	254.21	-146.78	323.89	241.98	-202.79	137.09	261.99	-175.42	148.06	343.69	-266.06	110.79	314.58	-253.07	78.392	346.63	-265.77	80.681	283.43	-96.633	54.861	225.81	-57.291	63.049	327.18	-9.9559	73.717	274.27	-341.69	1510.9	401.3	-425.45	1303.2	396.54
213	0.88333	-136.67	1296	371.46	-247.97	1452.1	534.59	-276.02	1474.9	234	-292.4	1766.5	412.56	-177.67	1026.1	488.83	-193.53	1043.6	259.41	-383.98	1039.6	411.27	-385.12	1046.3	330.39	-249.64	947.4	564.02	-248	974.39	202.4	-275.81	1103.5	537.84	-265.24	1113	235.8	-404.07	1007.6	376.14	-264.02	736.35	548.65	-220.11	653.64	507.59	-283.6	649.89	534.71	-198.2	741.32	517.85	-312.67	527.2	494.05	-321.9	537.25	366.63	-430.49	320.75	492.05	-380.82	246.21	473.31	-445.38	248.62	483.63	-359.16	320.08	481.24	-451.23	140.4	460.19	-445.35	152.37	382.76	-526.38	104.4	415.8	-523.17	74.512	389.02	-525.12	80.339	450.57	-357.83	41.066	491.98	-330.39	41.66	381.58	-269.67	46.276	423.18	-189.81	697.53	208.47	-94.463	645.82	228.7	-157.65	609.52	231.15	-118.8	730.86	206.14	-107.29	541.4	238.99	-78.167	543.33	366.98	-198.34	342.39	246.03	-142.69	246.95	251.21	-204.08	265.39	254.74	-136.6	322.96	242.51	-187.55	134.63	262.53	-160.49	146.35	344.39	-250.06	106.76	315.09	-236.29	74.75	347.25	-249	76.604	284.02	-79.235	54.947	226.65	-40.221	64.343	328.05	6.8799	76.097	275.15	-336.32	1511	401.29	-420.2	1303.3	396.78
214	0.8875	-131.38	1296	371.43	-242.5	1452.2	534.52	-270.8	1474.8	233.94	-286.98	1766.5	412.23	-172.48	1026	488.7	-188.45	1043.7	259.34	-378.8	1039.8	411.24	-379.98	1046.5	330.35	-244.71	947.39	563.92	-242.75	974.64	202.24	-270.53	1103.4	537.8	-260.22	1113.1	235.79	-398.95	1007.7	376.11	-260.53	736.54	548.73	-217.15	653.48	507.6	-280.67	650.2	534.76	-194.66	741.04	518	-310.56	527.69	494.13	-319.65	537.71	366.67	-429.25	321.7	492.12	-379.68	246.94	473.48	-444.28	249.58	483.61	-357.81	320.72	481.4	-450.44	141.33	460.21	-444.45	153.24	382.81	-525.64	105.79	415.78	-522.6	75.898	388.98	-524.56	81.703	450.54	-357.65	41.153	492.01	-330.13	41.691	381.69	-269.47	46.139	423.24	-185.33	697.56	208.87	-90.081	645.67	229.11	-153.29	609.51	231.63	-114.25	730.73	206.41	-102.47	541.31	239.57	-73.806	543.56	367.56	-188.74	339.92	246.61	-130.6	245.98	251.73	-192.46	262.8	255.29	-126.5	322.09	243.02	-172.34	132.36	263.06	-145.61	144.82	345.07	-234.07	102.98	315.57	-219.54	71.367	347.86	-232.24	72.785	284.6	-61.948	55.242	227.5	-23.304	65.819	328.92	23.547	78.636	276.05	-330.94	1511	401.28	-414.95	1303.3	396.99
215	0.89167	-126.09	1295.8	371.39	-237.04	1452.2	534.44	-265.55	1474.6	233.86	-281.57	1766.5	411.89	-167.28	1025.8	488.56	-183.33	1043.8	259.26	-373.61	1039.9	411.21	-374.81	1046.6	330.31	-239.77	947.36	563.84	-237.52	974.83	202.09	-265.23	1103.3	537.75	-255.16	1113.1	235.77	-393.8	1007.9	376.08	-257.01	736.7	548.81	-214.14	653.31	507.62	-277.7	650.49	534.82	-191.09	740.75	518.15	-308.39	528.16	494.21	-317.32	538.16	366.7	-427.97	322.65	492.19	-378.5	247.66	473.64	-443.15	250.54	483.59	-356.41	321.35	481.56	-449.64	142.26	460.23	-443.53	154.11	382.85	-524.88	107.19	415.75	-522.01	77.292	388.93	-523.99	83.076	450.51	-357.48	41.242	492.04	-329.88	41.715	381.79	-269.28	46.003	423.3	-180.95	697.51	209.27	-85.801	645.42	229.48	-149.05	609.41	232.09	-109.78	730.49	206.66	-97.755	541.13	240.14	-69.532	543.66	368.15	-179.17	337.51	247.2	-118.58	245.12	252.23	-180.87	260.31	255.86	-116.49	321.3	243.53	-157.19	130.28	263.6	-130.81	143.47	345.73	-218.1	99.435	316.05	-202.85	68.242	348.47	-215.5	69.227	285.17	-44.797	55.751	228.35	-6.5632	67.482	329.81	40.022	81.337	276.96	-325.55	1510.9	401.26	-409.69	1303.3	397.17
216	0.89583	-120.79	1295.7	371.34	-231.57	1452.2	534.36	-260.29	1474.5	233.79	-276.15	1766.4	411.54	-162.05	1025.6	488.42	-178.18	1043.9	259.17	-368.4	1039.9	411.16	-369.61	1046.7	330.25	-234.82	947.31	563.76	-232.3	974.96	201.95	-259.92	1103.1	537.7	-250.07	1113.2	235.72	-388.63	1008	376.03	-253.45	736.85	548.9	-211.09	653.14	507.65	-274.69	650.77	534.87	-187.48	740.45	518.32	-306.13	528.61	494.28	-314.92	538.6	366.73	-426.65	323.61	492.27	-377.3	248.37	473.79	-441.99	251.51	483.56	-354.97	321.97	481.71	-448.82	143.19	460.24	-442.58	154.99	382.88	-524.11	108.59	415.71	-521.41	78.694	388.87	-523.41	84.459	450.47	-357.3	41.333	492.07	-329.62	41.734	381.89	-269.1	45.868	423.34	-176.65	697.38	209.66	-81.616	645.06	229.81	-144.9	609.22	232.53	-105.4	730.16	206.88	-93.123	540.88	240.69	-65.343	543.66	368.73	-169.66	335.16	247.82	-106.67	244.38	252.72	-169.35	257.94	256.45	-106.57	320.57	244.03	-142.11	128.4	264.13	-116.12	142.31	346.39	-202.2	96.126	316.51	-186.24	65.375	349.06	-198.83	65.931	285.74	-27.809	56.476	229.2	9.9785	69.33	330.7	56.284	84.203	277.89	-320.16	1510.9	401.23	-404.42	1303.2	397.33
217	0.9	-115.48	1295.5	371.28	-226.11	1452.2	534.26	-255	1474.3	233.7	-270.73	1766.3	411.18	-156.82	1025.3	488.28	-172.99	1043.8	259.07	-363.17	1040	411.11	-364.38	1046.7	330.19	-229.86	947.24	563.69	-227.09	975.01	201.82	-254.6	1103	537.63	-244.93	1113.1	235.66	-383.44	1008.1	375.98	-249.84	736.98	549	-207.98	652.95	507.69	-271.61	651.03	534.93	-183.83	740.15	518.49	-303.8	529.04	494.35	-312.44	539.04	366.76	-425.28	324.58	492.34	-376.05	249.08	473.94	-440.8	252.49	483.52	-353.48	322.58	481.86	-447.98	144.13	460.25	-441.61	155.87	382.92	-523.32	110	415.67	-520.8	80.105	388.81	-522.81	85.852	450.43	-357.13	41.425	492.1	-329.37	41.747	382	-268.93	45.734	423.38	-172.43	697.17	210.03	-77.514	644.61	230.1	-140.85	608.94	232.95	-101.08	729.74	207.07	-88.573	540.55	241.22	-61.236	543.55	369.3	-160.2	332.88	248.46	-94.883	243.74	253.2	-157.89	255.67	257.06	-96.754	319.91	244.53	-127.14	126.71	264.67	-101.57	141.33	347.04	-186.39	93.051	316.96	-169.75	62.76	349.66	-182.25	62.893	286.3	-11.011	57.418	230.06	26.296	71.363	331.6	72.307	87.235	278.84	-314.75	1510.7	401.19	-399.14	1303.1	397.45
218	0.90417	-110.17	1295.3	371.21	-220.65	1452.1	534.16	-249.69	1474.1	233.6	-265.32	1766.2	410.81	-151.57	1025	488.15	-167.77	1043.8	258.97	-357.92	1040	411.05	-359.13	1046.7	330.11	-224.88	947.14	563.64	-221.87	975.01	201.71	-249.27	1102.8	537.56	-239.75	1113.1	235.58	-378.22	1008.1	375.92	-246.2	737.08	549.1	-204.81	652.75	507.73	-268.48	651.27	534.98	-180.13	739.83	518.66	-301.38	529.45	494.41	-309.88	539.45	366.79	-423.87	325.55	492.41	-374.77	249.78	474.07	-439.56	253.46	483.48	-351.93	323.16	482	-447.12	145.08	460.26	-440.61	156.75	382.94	-522.51	111.41	415.62	-520.17	81.526	388.73	-522.2	87.254	450.38	-356.95	41.517	492.12	-329.11	41.756	382.1	-268.76	45.601	423.42	-168.27	696.89	210.39	-73.487	644.06	230.36	-136.88	608.59	233.35	-96.827	729.22	207.23	-84.097	540.15	241.73	-57.206	543.33	369.87	-150.81	330.68	249.1	-83.223	243.21	253.67	-146.53	253.53	257.68	-87.049	319.31	245.01	-112.3	125.22	265.22	-87.184	140.52	347.67	-170.71	90.205	317.41	-153.4	60.393	350.25	-165.8	60.11	286.85	5.5683	58.574	230.94	42.364	73.577	332.52	88.066	90.43	279.81	-309.34	1510.6	401.13	-393.85	1303	397.56
